<?xml version="1.0" encoding="utf-8"?>
<!-- Generator: Adobe Illustrator 21.1.0, SVG Export Plug-In . SVG Version: 6.00 Build 0)  -->
<svg version="1.1" id="Слой_1" xmlns="http://www.w3.org/2000/svg" xmlns:xlink="http://www.w3.org/1999/xlink" x="0px" y="0px"
	 viewBox="0 0 52 52" style="enable-background:new 0 0 52 52;" xml:space="preserve">
<style type="text/css">
	.st0{fill:#6F6F6F;}
	.st1{fill:#0066B1;}
</style>
<path class="st0" d="M26,2C12.7,2,2,12.7,2,26s10.7,24,24,24s24-10.7,24-24S39.3,2,26,2z M48.4,26c0,12.4-10,22.4-22.4,22.4
	S3.6,38.4,3.6,26S13.6,3.6,26,3.6S48.4,13.6,48.4,26z"/>
<path class="st0" d="M26,11.8v0.8c7.4,0,13.5,6,13.5,13.5h0.8C40.2,18.1,33.9,11.8,26,11.8z M26,39.5c-7.4,0-13.5-6-13.5-13.5h-0.8
	c0,7.9,6.4,14.2,14.2,14.2"/>
<path class="st0" d="M37.6,15.8c0.3,0.3,0.8,0.9,1.1,1.3l4.9-3.1c-0.2-0.3-0.6-0.8-0.9-1.1l-3.1,2l-0.2,0.2l0.2-0.2l1.4-2.7l-1-1
	l-2.7,1.4L37,12.7l0.2-0.2l2-3.1c-0.4-0.3-0.7-0.6-1.1-0.9l-3.1,4.9c0.4,0.3,0.9,0.7,1.2,1l2.9-1.5l0.2-0.1l-0.1,0.2L37.6,15.8z"/>
<path class="st0" d="M26.6,9.7l1.3-3L28,6.4l0,0.3l0.1,4c0.5,0,0.9,0.1,1.4,0.2L29.3,5c-0.7-0.1-1.3-0.1-2-0.2L26,8.1l0,0.2l0-0.2
	l-1.3-3.2c-0.7,0-1.3,0.1-2,0.2l-0.2,5.9c0.5-0.1,1-0.1,1.4-0.2l0.1-4l0-0.3l0.1,0.3l1.3,3H26.6z"/>
<path class="st0" d="M15.9,14.4c0.8-0.8,1.2-1.7,0.4-2.6c-0.4-0.5-1.1-0.6-1.7-0.4l-0.1,0l0-0.1c0.1-0.2,0.1-1-0.5-1.5
	c-0.3-0.2-0.7-0.3-1.1-0.3c-0.7,0.1-1.3,0.6-2.8,2.2c-0.5,0.5-1.1,1.3-1.5,1.8l4.1,3.9C14.2,16.1,14.8,15.5,15.9,14.4z M10.5,13.4
	c0.8-1,1.7-1.9,2.1-2.3c0.1-0.1,0.3-0.2,0.4-0.3c0.3-0.1,0.6,0.1,0.6,0.4c0.1,0.3-0.1,0.5-0.3,0.8c-0.4,0.5-2.1,2.2-2.1,2.2
	L10.5,13.4z M12.1,14.9c0,0,1.6-1.7,2.1-2.2c0.2-0.2,0.3-0.3,0.5-0.4c0.2-0.1,0.4-0.1,0.6,0c0.2,0.1,0.3,0.3,0.2,0.5
	c-0.1,0.2-0.2,0.5-0.4,0.6c-0.2,0.2-2.1,2.2-2.1,2.2L12.1,14.9z"/>
<path class="st1" d="M26,11.8V26H11.8C11.8,18.1,18.1,11.8,26,11.8z"/>
<path class="st1" d="M40.2,26c0,7.9-6.4,14.2-14.2,14.2V26H40.2z"/>
</svg>
